<?xml version="1.0" standalone="no"?>
<!DOCTYPE svg PUBLIC "-//W3C//DTD SVG 20010904//EN"
 "http://www.w3.org/TR/2001/REC-SVG-20010904/DTD/svg10.dtd">
<svg version="1.0" xmlns="http://www.w3.org/2000/svg"
 width="1024.000000pt" height="1024.000000pt" viewBox="0 0 1024.000000 1024.000000"
 preserveAspectRatio="xMidYMid meet">

<g transform="translate(0.000000,1024.000000) scale(0.100000,-0.100000)"
fill="#000000" stroke="none">
<path d="M7173 8948 c-13 -6 -43 -49 -69 -97 -26 -47 -86 -151 -134 -231 -47
-80 -111 -188 -140 -240 -29 -52 -70 -122 -90 -155 -21 -33 -57 -96 -80 -140
-24 -44 -78 -138 -120 -210 -88 -149 -111 -188 -197 -334 -46 -78 -67 -105
-80 -104 -10 2 -47 7 -83 13 -36 6 -153 13 -261 16 -187 5 -196 5 -201 -13 -5
-18 8 -21 201 -37 196 -17 309 -31 317 -39 8 -8 -343 -634 -384 -687 l-20 -25
-629 0 c-512 1 -667 4 -838 18 -448 38 -702 73 -972 133 -206 46 -267 70 -293
119 -12 22 -11 27 6 46 20 23 188 109 212 109 9 0 13 3 9 6 -3 3 -28 -1 -56
-11 -28 -9 -56 -13 -62 -9 -7 4 -9 3 -6 -3 4 -6 -11 -20 -33 -32 -48 -25 -53
-19 -7 9 26 16 28 20 12 21 -11 1 -26 1 -32 0 -7 -1 -13 0 -13 3 0 11 79 45
193 81 64 20 117 39 117 41 0 10 -253 -68 -305 -93 -39 -20 -93 -71 -111 -105
-13 -24 -12 -33 1 -65 l15 -38 -25 30 c-37 43 -41 73 -19 114 28 52 87 92 209
140 181 71 463 135 800 180 332 45 590 85 595 92 3 4 17 5 33 4 15 -2 27 1 27
5 0 33 -573 -3 -865 -55 -582 -102 -846 -212 -928 -385 -22 -45 -22 -48 -19
-665 1 -341 7 -692 12 -780 12 -185 47 -473 90 -730 28 -168 48 -260 152 -700
57 -241 176 -647 253 -870 37 -104 73 -210 82 -235 35 -102 148 -390 178 -455
18 -38 49 -95 68 -125 23 -36 33 -59 27 -69 -10 -18 4 -68 26 -92 59 -65 296
-163 530 -219 75 -17 352 -61 542 -85 29 -4 52 -12 52 -18 0 -9 2 -9 8 0 7 12
52 14 52 3 0 -3 22 -5 50 -4 27 0 50 -3 50 -8 0 -5 8 -4 19 1 10 6 21 8 24 4
8 -7 47 -12 114 -14 36 -1 51 -5 46 -13 -4 -8 -3 -8 6 0 7 6 31 8 59 4 26 -3
66 -5 90 -4 24 0 38 -2 31 -6 -8 -6 -7 -9 2 -12 8 -3 20 2 26 11 10 13 14 14
22 2 6 -9 10 -10 16 -2 5 9 10 9 21 0 9 -7 14 -8 14 -1 0 5 9 8 20 5 11 -3 17
-10 14 -17 -3 -6 1 -3 9 7 9 11 18 14 21 8 4 -6 14 -7 23 -4 11 4 14 3 9 -5
-5 -8 -2 -10 8 -6 9 3 13 11 9 18 -5 8 -3 8 8 0 8 -5 25 -9 39 -8 13 1 35 -6
49 -14 24 -16 24 -16 11 8 -12 22 -12 24 2 12 13 -10 17 -10 22 0 5 11 7 11
12 0 5 -10 9 -10 22 0 14 11 15 10 8 -7 -6 -16 -5 -18 5 -8 15 15 33 17 24 3
-11 -17 7 -11 21 8 8 10 13 12 14 5 0 -7 7 -13 16 -13 9 0 13 5 9 13 -4 6 1 3
11 -8 16 -20 16 -20 11 3 -3 12 -1 20 4 16 5 -3 9 -12 9 -20 0 -8 5 -14 11
-14 6 0 9 7 5 15 -4 13 -2 14 14 5 11 -6 20 -8 20 -4 0 3 6 1 13 -5 8 -6 17
-8 21 -4 4 4 11 1 16 -7 8 -13 10 -12 10 3 0 9 7 17 15 17 8 0 15 5 15 10 0 6
5 10 11 10 6 0 9 -6 6 -13 -3 -7 5 -19 16 -27 21 -12 21 -12 7 5 -14 17 -13
18 4 12 17 -7 17 -6 5 10 -13 16 -11 16 15 -1 28 -18 29 -18 22 0 -6 15 -2 14
18 -5 22 -21 26 -22 32 -8 8 22 25 12 18 -11 -5 -15 -4 -15 6 1 6 10 9 25 6
33 -3 8 -1 14 4 14 6 0 10 -5 10 -11 0 -8 6 -7 16 2 15 12 16 11 10 -11 -6
-19 -5 -21 3 -10 6 8 11 11 11 6 0 -6 7 -1 16 10 11 13 14 14 11 3 -3 -9 1
-16 8 -16 8 0 14 3 13 6 0 3 0 13 1 21 1 13 2 13 11 0 9 -13 11 -13 20 0 8 12
10 11 10 -7 0 -27 6 -29 27 -8 8 8 20 12 26 8 7 -3 3 4 -8 18 -15 17 -15 20
-3 10 10 -7 25 -11 33 -7 13 5 13 2 -1 -19 -9 -13 -14 -30 -11 -37 3 -8 6 -6
6 5 1 10 5 16 10 13 5 -3 12 6 15 20 5 18 12 24 22 20 9 -3 21 -3 27 1 7 4 25
8 40 8 15 0 33 7 38 15 8 12 9 10 4 -7 -3 -12 -1 -24 5 -28 6 -3 7 -12 4 -18
-4 -8 -2 -7 7 1 10 9 11 15 3 20 -9 5 -8 11 2 20 12 11 14 10 15 -5 1 -10 1
-21 0 -25 -3 -18 10 -6 19 17 8 22 14 24 45 20 20 -2 40 -7 45 -10 5 -3 26 13
46 35 21 22 39 38 42 35 3 -2 -1 -11 -8 -20 -10 -12 -8 -16 14 -25 30 -11 36
-24 6 -15 -14 4 -20 2 -20 -9 0 -13 5 -14 27 -5 14 5 32 8 39 5 18 -7 25 7 13
24 -8 12 -12 12 -16 3 -6 -15 -23 -17 -23 -3 0 5 10 14 21 21 17 9 23 8 30 -2
6 -10 8 -6 5 11 -4 25 -24 29 -38 7 -6 -9 -8 -9 -8 0 0 19 35 34 48 21 9 -9
12 -8 12 5 0 9 4 17 8 17 5 0 9 -7 9 -15 0 -8 -4 -15 -9 -15 -16 0 -8 -31 10
-37 9 -4 20 -11 24 -17 5 -7 8 -7 8 2 0 7 -10 17 -22 21 -20 8 -21 10 -6 16
13 5 16 15 13 38 -4 29 -4 29 4 7 8 -21 9 -22 10 -5 2 19 2 19 12 1 9 -14 8
-20 -2 -27 -12 -7 -12 -10 0 -21 10 -10 12 -10 7 0 -10 17 9 15 27 -3 8 -8 17
-11 21 -8 3 3 -6 16 -19 29 -26 24 -33 44 -14 44 5 0 8 -4 5 -9 -8 -12 22 -36
32 -26 4 4 1 10 -6 12 -10 4 -10 8 -1 19 13 15 34 19 24 5 -12 -20 11 -16 31
5 17 17 19 24 9 28 -8 3 -16 -3 -18 -12 -3 -12 -5 -10 -6 6 -1 13 4 22 12 21
30 -4 39 2 34 21 -3 11 -2 18 3 15 4 -3 10 2 14 10 3 8 0 15 -7 15 -16 0 -20
37 -5 46 7 4 8 2 4 -5 -4 -6 -2 -18 4 -26 19 -23 32 -18 19 7 -12 23 -12 23 9
5 13 -12 22 -15 27 -7 4 6 15 8 25 5 14 -4 18 0 18 20 0 14 -6 25 -14 25 -8 0
-11 -6 -8 -15 4 -9 0 -15 -10 -15 -13 0 -14 4 -4 25 6 13 16 22 21 18 6 -4 8
0 4 11 -5 12 -3 16 5 14 7 -3 13 -13 13 -23 0 -10 6 -20 13 -22 8 -3 10 1 5
13 -5 13 -3 16 10 11 9 -3 17 -2 17 3 0 6 4 10 10 10 5 0 7 -8 4 -17 -5 -15
-4 -15 6 1 10 15 9 20 -1 27 -12 8 -6 13 12 11 3 -1 6 5 6 12 0 10 -7 10 -28
-3 -15 -8 -25 -19 -23 -23 3 -5 -2 -8 -10 -8 -18 0 -21 16 -6 25 18 11 11 35
-10 35 -17 0 -19 2 -8 14 7 8 15 10 16 5 2 -5 9 -9 15 -9 7 0 7 4 -2 13 -15
15 -34 16 -43 2 -5 -6 -11 -6 -19 2 -8 8 -6 14 9 22 10 6 22 8 24 5 3 -3 8 2
12 11 4 13 2 14 -14 5 -26 -14 -30 -13 -30 10 0 11 6 20 13 21 6 0 3 4 -8 9
-28 12 -35 12 -35 -1 0 -5 4 -7 10 -4 6 3 10 -5 10 -19 0 -20 -4 -24 -21 -21
-12 3 -24 7 -28 11 -3 4 2 4 11 1 10 -3 20 -2 23 2 6 11 -23 23 -36 16 -5 -4
-6 2 -3 12 4 11 2 14 -3 7 -13 -16 -42 -24 -48 -13 -4 5 -3 8 2 7 4 -2 8 2 8
7 0 6 -6 9 -12 9 -7 -1 -11 2 -8 6 2 4 -14 6 -37 5 -26 -1 -48 3 -56 12 -9 9
-18 10 -26 4 -13 -11 -84 -7 -132 8 -22 6 -36 5 -44 -2 -9 -9 -11 -8 -8 3 2
12 -8 15 -49 15 -29 0 -53 2 -53 5 0 3 -15 4 -34 2 l-34 -4 14 43 c8 23 26 61
39 84 14 23 34 67 45 99 10 31 28 69 38 84 11 15 29 58 41 96 12 38 32 88 43
110 11 22 29 71 39 109 11 38 28 86 39 106 10 21 30 76 44 122 13 46 48 152
75 234 117 344 279 1042 325 1398 23 176 57 565 65 757 5 96 8 400 7 675 l-1
500 -28 57 c-16 33 -48 75 -75 98 -86 76 -291 159 -499 202 -62 12 -113 26
-113 31 0 4 12 26 26 48 14 23 34 60 45 83 10 22 35 69 56 102 21 34 46 75 55
90 10 16 38 61 63 99 25 39 53 86 61 105 9 19 31 56 50 81 18 25 38 58 44 74
6 15 40 72 76 127 36 54 69 110 75 124 5 15 25 49 44 78 19 29 40 65 47 81 7
17 50 86 96 154 94 141 99 164 53 228 -56 77 -148 123 -244 122 -34 0 -72 -5
-84 -11z m57 -166 c0 -24 -121 -253 -154 -292 -8 -8 -53 -85 -101 -170 -48
-85 -108 -186 -132 -225 -25 -38 -86 -142 -135 -230 -50 -88 -127 -220 -172
-292 -45 -73 -105 -176 -135 -230 -50 -89 -108 -189 -313 -535 -67 -114 -70
-118 -103 -118 l-34 0 39 59 c21 32 77 125 123 207 46 82 122 214 169 294 163
280 202 346 293 505 51 88 106 184 124 214 18 30 53 95 78 145 25 50 51 98 58
106 7 8 28 42 46 75 17 33 37 67 44 75 6 8 36 58 65 110 29 52 63 111 75 130
13 20 34 59 48 87 52 102 117 150 117 85z m-437 -1528 c74 -21 94 -30 80 -36
-12 -6 -8 -6 11 -3 37 8 200 -44 281 -89 33 -18 70 -48 83 -66 41 -61 22 -128
-44 -156 -44 -19 -54 -17 -28 4 66 56 49 149 -36 192 -32 17 -65 15 -60 -4 6
-25 -13 -25 -90 0 -47 14 -91 28 -98 30 -7 2 -10 9 -6 16 5 10 4 10 -5 2 -14
-13 -61 -7 -61 8 0 5 6 6 13 2 9 -6 9 -5 0 8 -7 8 -9 19 -5 24 4 4 -1 2 -10
-5 -12 -9 -18 -10 -18 -2 0 6 -5 11 -12 11 -6 0 -3 -9 7 -20 19 -21 19 -21
-26 -15 -24 3 6 -8 67 -25 155 -41 212 -64 278 -111 63 -45 70 -68 35 -112
-33 -42 -191 -85 -499 -137 -69 -11 -145 -25 -170 -30 -25 -5 -68 -11 -97 -15
l-52 -6 47 93 c26 51 55 104 63 118 9 14 49 80 89 148 43 73 77 121 85 119 6
-3 12 0 12 6 0 7 8 29 17 51 12 28 21 37 33 33 10 -2 62 -17 116 -33z m-3593
-498 c374 -99 1397 -196 2052 -196 335 1 761 29 1173 79 337 41 718 121 823
172 35 17 66 28 69 25 9 -9 4 -784 -7 -1056 -19 -464 -55 -779 -130 -1135
-104 -498 -175 -763 -302 -1135 -213 -627 -336 -916 -449 -1055 -100 -123
-150 -155 -321 -204 -465 -133 -1118 -155 -1713 -56 -276 46 -441 107 -510
187 -34 40 -35 43 -18 56 60 45 213 103 268 101 11 0 -13 -9 -53 -19 -40 -11
-83 -27 -95 -36 -19 -15 -20 -16 -2 -9 11 4 25 8 30 9 6 1 16 5 24 10 8 5 16
3 22 -5 6 -10 9 -10 9 -2 0 7 7 10 15 7 8 -4 12 -11 8 -17 -3 -6 -1 -7 5 -3 7
4 12 15 12 24 0 10 6 5 16 -13 8 -16 20 -34 26 -40 7 -5 4 4 -6 20 -10 17 -13
24 -5 18 15 -15 53 -18 44 -4 -3 6 4 8 17 5 13 -3 32 -6 43 -6 11 0 14 -2 8
-5 -7 -3 -13 -12 -13 -20 0 -12 5 -10 20 7 20 23 20 23 20 2 0 -15 5 -20 15
-16 8 4 12 11 8 18 -4 7 -1 7 9 -1 8 -7 18 -10 21 -6 4 3 7 -2 7 -12 0 -10 2
-16 5 -13 8 8 -23 139 -36 155 -15 18 -139 17 -259 -2 -123 -20 -199 -56 -215
-104 l-11 -34 -27 33 c-60 71 -152 290 -316 755 -137 387 -208 627 -315 1071
-102 425 -122 531 -170 899 -41 307 -46 419 -48 1045 l-3 595 80 -32 c44 -18
123 -44 175 -57z m1127 -4278 c-3 -8 -6 -5 -6 6 -1 11 2 17 5 13 3 -3 4 -12 1
-19z m2816 -42 c4 -10 1 -13 -8 -9 -8 3 -12 9 -9 14 7 12 11 11 17 -5z m47
-30 c0 -3 -4 -8 -10 -11 -5 -3 -10 -1 -10 4 0 6 5 11 10 11 6 0 10 -2 10 -4z
m0 -36 c0 -5 -2 -10 -4 -10 -3 0 -8 5 -11 10 -3 6 -1 10 4 10 6 0 11 -4 11
-10z m60 -16 c-3 -5 -12 -8 -21 -7 -10 1 -19 -6 -22 -17 -3 -11 -11 -20 -19
-19 -10 0 -10 2 0 6 6 2 12 13 12 22 0 10 3 21 6 24 10 10 50 1 44 -9z m-70
-14 c0 -5 -5 -10 -11 -10 -5 0 -7 5 -4 10 3 6 8 10 11 10 2 0 4 -4 4 -10z
m-20 -56 c0 -2 -7 -4 -15 -4 -8 0 -15 4 -15 10 0 5 7 7 15 4 8 -4 15 -8 15
-10z m-54 -64 c0 -12 -4 -16 -9 -11 -5 5 -6 14 -3 20 10 15 12 14 12 -9z m8
-38 c3 -5 -1 -9 -9 -9 -8 0 -12 4 -9 9 3 4 7 8 9 8 2 0 6 -4 9 -8z m-68 -44
c4 -7 3 -8 -4 -4 -7 4 -12 2 -12 -5 0 -7 -3 -10 -6 -6 -6 5 3 27 11 27 2 0 7
-5 11 -12z m-135 -31 c-10 -9 -11 -8 -5 6 3 10 9 15 12 12 3 -3 0 -11 -7 -18z
m-61 -62 c0 -8 -4 -15 -10 -15 -5 0 -7 7 -4 15 4 8 8 15 10 15 2 0 4 -7 4 -15z
m-105 -25 c3 -5 -1 -10 -9 -10 -9 0 -16 5 -16 10 0 6 4 10 9 10 6 0 13 -4 16
-10z m-555 -65 c0 -8 -4 -15 -8 -15 -5 0 -9 7 -9 15 0 8 4 15 9 15 4 0 8 -7 8
-15z"/>
<path d="M6850 7172 c0 -14 54 -22 62 -9 5 8 8 6 8 -5 0 -9 -6 -18 -12 -21 -7
-3 7 -3 32 0 69 7 80 15 35 25 -79 17 -125 21 -125 10z"/>
<path d="M7015 7140 c-3 -5 -2 -10 4 -10 5 0 13 5 16 10 3 6 2 10 -4 10 -5 0
-13 -4 -16 -10z"/>
<path d="M7133 6690 c-20 -8 -21 -14 -16 -82 3 -41 2 -181 -2 -311 -7 -229 -8
-236 -25 -214 -28 36 -185 112 -320 155 -103 33 -497 112 -560 112 -18 0 -8
-109 11 -121 8 -5 43 -9 79 -10 93 -1 162 -8 235 -23 35 -7 82 -11 104 -9 26
2 41 0 41 -7 0 -6 4 -9 9 -6 5 3 12 -1 15 -9 4 -13 10 -14 26 -5 32 17 25 -11
-10 -42 -16 -14 -30 -22 -30 -17 0 6 -4 8 -8 5 -5 -3 -9 1 -9 9 0 11 4 12 13
4 7 -6 14 -6 18 -1 3 6 -1 13 -10 16 -8 3 -12 12 -9 18 4 7 0 5 -9 -5 -8 -11
-13 -27 -11 -37 2 -10 -5 -26 -14 -34 -15 -14 -55 -18 -234 -23 -247 -7 -234
-1 -222 -98 l7 -55 272 6 c351 8 352 8 416 5 30 -1 48 -5 40 -8 -8 -3 -24 -14
-35 -24 -12 -10 -52 -30 -89 -43 -38 -14 -71 -28 -75 -32 -3 -4 3 -4 14 0 11
4 49 17 85 28 87 27 192 81 238 122 42 37 102 63 102 43 0 -25 -39 -74 -91
-114 -132 -101 -370 -178 -776 -250 l-103 -18 0 -60 c-1 -225 -22 -781 -35
-885 -12 -108 -39 -218 -57 -235 -3 -3 0 20 8 52 25 113 45 401 51 759 l6 360
-69 -7 c-553 -55 -779 -68 -1164 -65 -173 1 -305 0 -292 -2 12 -2 23 -9 24
-15 0 -7 2 -16 2 -22 1 -5 5 -16 9 -22 5 -7 4 -13 -1 -13 -6 0 -8 -10 -4 -22
l5 -22 8 22 c8 22 29 31 29 12 0 -5 -4 -10 -8 -10 -16 0 -33 -73 -20 -85 8 -7
9 -6 4 3 -4 6 -2 12 3 12 6 0 11 -4 11 -10 0 -5 7 -10 15 -10 9 0 12 -6 9 -17
-5 -15 -4 -16 5 -3 10 13 12 13 21 0 6 -9 10 -10 10 -3 0 9 6 9 25 -1 14 -7
62 -14 107 -15 45 -1 85 -4 88 -8 6 -7 -371 5 -550 18 -74 5 -179 17 -233 26
-54 8 -101 13 -104 9 -6 -6 10 -533 23 -761 4 -65 2 -85 -5 -74 -16 25 -30
212 -41 545 -5 163 -11 298 -13 300 -8 8 -249 45 -255 39 -4 -4 -9 -81 -12
-172 -4 -118 -9 -168 -17 -170 -7 -3 -28 -15 -48 -29 -40 -27 -50 -30 -39 -11
6 9 5 9 -8 0 -8 -7 -18 -10 -21 -6 -4 3 -7 0 -7 -8 -1 -10 -3 -9 -11 4 -5 9
-15 17 -22 17 -7 0 -6 -4 3 -10 13 -8 13 -10 -1 -10 -9 0 -19 7 -23 15 -3 8
-11 15 -18 15 -9 0 -9 -3 2 -11 12 -9 12 -10 -3 -5 -10 3 -20 6 -22 6 -2 0 -1
9 2 20 4 16 2 19 -11 14 -12 -5 -15 -2 -10 10 4 11 2 16 -7 14 -8 -2 -13 2
-12 9 2 7 -3 10 -11 7 -11 -4 -13 0 -9 17 4 14 2 20 -4 16 -19 -12 -36 83 -42
227 l-6 139 -90 31 c-110 38 -210 93 -250 137 -16 18 -22 27 -13 20 14 -11 19
-8 33 19 9 17 19 29 23 26 4 -3 6 10 5 27 -2 18 1 39 7 47 9 13 13 12 27 -5
11 -15 14 -16 10 -3 -5 14 -1 15 26 7 18 -5 34 -9 37 -9 2 0 -19 16 -49 35
-65 43 -88 69 -101 117 -9 31 -8 43 7 70 16 30 18 65 18 348 l0 315 -33 3 -32
3 -2 -288 c-8 -909 3 -1174 63 -1501 27 -151 73 -302 120 -395 12 -23 50 -83
85 -133 108 -156 139 -228 174 -404 69 -347 143 -547 276 -748 114 -170 261
-309 427 -402 l58 -32 -6 53 c-4 30 -17 119 -30 199 -34 203 -82 608 -94 780
-11 157 -36 268 -77 337 -41 71 -122 162 -187 210 -73 54 -229 131 -344 168
-46 15 -83 30 -83 32 0 13 123 -9 207 -36 192 -63 317 -153 424 -304 l48 -68
26 45 c35 60 85 102 165 140 54 25 79 31 145 32 86 2 142 -9 95 -19 -14 -3
-60 -10 -104 -16 -136 -19 -207 -64 -256 -160 -15 -32 -32 -74 -36 -95 -13
-72 50 -709 97 -981 11 -60 26 -155 35 -210 9 -55 19 -107 23 -115 4 -8 50
-32 102 -54 225 -93 388 -120 714 -121 137 0 254 5 310 14 198 30 481 131 490
175 30 145 80 464 104 671 67 569 69 611 29 696 -40 87 -85 131 -164 159 -62
21 -66 24 -45 34 17 7 36 5 75 -8 80 -28 113 -53 137 -104 13 -26 33 -62 46
-81 20 -29 24 -31 29 -15 14 44 24 62 68 121 52 68 144 156 156 148 4 -3 41 9
81 26 154 64 159 63 24 -5 -134 -67 -241 -172 -309 -304 -28 -55 -44 -154 -66
-402 -31 -353 -81 -747 -111 -878 -6 -29 -9 -55 -6 -58 9 -9 111 50 188 108
167 126 361 393 450 618 39 100 102 332 138 510 24 121 37 160 76 235 25 49
52 97 60 105 7 8 23 35 35 60 13 25 40 69 61 98 21 30 49 88 63 130 49 145
100 468 115 719 11 180 15 1258 5 1297 -7 27 -15 30 -51 16z m-353 -530 c0 -5
-5 -10 -11 -10 -5 0 -7 5 -4 10 3 6 8 10 11 10 2 0 4 -4 4 -10z m-5 -30 c3 -5
-1 -10 -9 -10 -9 0 -16 5 -16 10 0 6 4 10 9 10 6 0 13 -4 16 -10z m-2064 -645
c7 -13 3 -12 -10 5 -11 14 -21 30 -21 35 0 11 14 -7 31 -40z m14 -85 c3 -5 -1
-10 -9 -10 -9 0 -16 5 -16 10 0 6 4 10 9 10 6 0 13 -4 16 -10z m362 -96 c-3
-3 -12 -4 -19 -1 -8 3 -5 6 6 6 11 1 17 -2 13 -5z m1533 -804 c-8 -5 -19 -10
-25 -10 -5 0 -3 5 5 10 8 5 20 10 25 10 6 0 3 -5 -5 -10z"/>
<path d="M5985 6525 c-254 -29 -236 -23 -266 -80 -26 -50 -27 -50 -75 -49 -27
0 -184 4 -349 8 -299 8 -698 -2 -943 -24 -64 -6 -145 -13 -179 -16 l-63 -6 0
-75 0 -75 28 6 c61 15 247 35 412 46 96 6 195 14 220 17 25 4 224 7 442 7 385
1 398 2 413 21 16 21 3 -4 -109 -210 -53 -96 -63 -122 -53 -132 7 -7 49 -18
94 -24 95 -14 285 1 356 27 79 29 77 29 77 -5 0 -34 -23 -54 -88 -77 -37 -13
-37 -13 -7 -14 17 0 46 5 65 11 19 5 73 12 120 14 l85 3 3 71 3 71 -106 0
c-77 0 -105 3 -105 13 1 6 20 48 43 92 l42 80 45 -3 c25 -2 53 -5 63 -8 16 -5
18 1 15 63 -3 66 -4 68 -30 71 -16 2 -28 7 -28 11 0 4 14 29 32 55 27 42 30
52 22 84 -11 45 -13 45 -179 27z m-100 -82 c-57 -101 -81 -142 -158 -268 -119
-193 -141 -225 -154 -225 -33 0 4 81 127 285 40 66 88 152 107 192 31 65 37
72 66 75 18 2 33 0 35 -4 2 -4 -9 -28 -23 -55z"/>
<path d="M3845 6315 c-237 -45 -407 -94 -531 -155 -103 -50 -154 -94 -154
-131 0 -33 27 -74 67 -102 46 -32 206 -107 224 -106 8 0 2 5 -12 10 -15 6 -29
20 -32 32 -6 21 -6 21 8 3 17 -22 20 -14 5 13 -11 22 13 61 38 61 13 0 14 2 4
9 -11 6 -8 15 14 37 15 16 24 23 20 17 -5 -9 -2 -11 8 -7 17 7 21 20 9 27 -5
2 -2 2 6 0 7 -2 20 5 28 14 8 10 12 12 8 6 -7 -15 -4 -16 19 -7 9 3 16 13 16
21 0 8 5 11 10 8 6 -3 10 2 10 12 0 15 2 16 10 3 5 -8 10 -10 10 -4 0 6 11 16
23 21 43 20 238 65 253 59 9 -3 12 -1 9 4 -3 6 3 10 14 10 10 0 21 -3 24 -7 2
-5 3 -3 1 3 -3 12 67 34 105 34 19 0 21 6 21 75 l0 75 -27 -1 c-16 0 -109 -16
-208 -34z"/>
<path d="M4568 6243 c6 -2 18 -2 25 0 6 3 1 5 -13 5 -14 0 -19 -2 -12 -5z"/>
<path d="M3715 6100 c-3 -5 -1 -10 4 -10 6 0 11 5 11 10 0 6 -2 10 -4 10 -3 0
-8 -4 -11 -10z"/>
<path d="M3426 5903 c-6 -14 -5 -15 5 -6 7 7 10 15 7 18 -3 3 -9 -2 -12 -12z"/>
<path d="M4579 5423 c-13 -16 -12 -17 4 -4 9 7 17 15 17 17 0 8 -8 3 -21 -13z"/>
<path d="M4636 5429 c3 -5 12 -9 21 -9 19 0 9 13 -12 16 -8 1 -13 -2 -9 -7z"/>
<path d="M4616 5407 c3 -10 9 -15 12 -12 3 3 0 11 -7 18 -10 9 -11 8 -5 -6z"/>
<path d="M4648 5377 c-3 -15 -2 -27 3 -27 13 0 17 14 9 35 -6 17 -7 16 -12 -8z"/>
<path d="M5958 2604 c-5 -4 -8 -15 -8 -24 0 -14 14 -18 73 -24 97 -9 215 -38
306 -75 76 -32 101 -30 101 6 0 28 -65 81 -121 98 -58 18 -338 34 -351 19z"/>
<path d="M5675 2594 c-11 -1 -108 -10 -216 -20 -199 -18 -275 -16 -760 13 -53
3 -149 2 -213 -2 -131 -8 -125 -2 -105 -96 9 -42 14 -50 23 -38 12 16 30 18
43 5 5 -5 2 -6 -6 -1 -9 5 -12 4 -7 -3 10 -17 15 -15 26 11 8 20 9 20 10 2 1
-18 1 -19 11 -2 11 18 49 24 49 7 0 -6 12 -2 27 7 26 17 27 17 20 0 -6 -15 -4
-16 13 -7 11 6 25 8 30 5 6 -3 10 0 10 7 0 10 3 9 9 -2 6 -8 7 -18 4 -24 -3
-5 -1 -6 5 -3 5 4 8 15 5 25 -3 14 1 18 16 17 11 -1 24 -4 27 -8 13 -13 27 -7
15 6 -9 11 -6 14 13 13 13 -1 30 -7 38 -13 8 -7 19 -8 27 -4 7 5 33 3 57 -5
34 -10 44 -10 44 -1 0 7 4 6 10 -3 9 -13 10 -13 10 0 1 11 4 10 15 -4 15 -20
15 -20 15 0 1 16 3 16 16 -6 12 -20 14 -21 11 -5 -3 15 2 20 19 20 13 0 26 -5
28 -12 3 -7 -1 -10 -10 -6 -7 3 -14 1 -14 -5 0 -6 8 -9 18 -7 9 1 16 8 14 15
-2 8 6 11 22 8 14 -3 23 -2 21 2 -10 16 54 16 70 1 15 -15 16 -14 10 4 -6 19
-6 19 8 3 8 -10 17 -15 20 -11 4 3 7 1 7 -5 0 -7 4 -12 10 -12 5 0 7 8 4 18
-4 10 -3 13 3 6 4 -6 16 -10 25 -9 9 2 23 -4 30 -13 11 -13 11 -14 0 -8 -11 7
-12 4 -3 -13 13 -23 23 -29 15 -7 -6 16 18 27 36 16 11 -7 11 -12 -1 -27 -13
-16 -12 -17 3 -5 11 9 18 10 23 2 3 -6 11 -8 16 -5 5 4 21 -2 37 -13 50 -35
81 -37 50 -3 -11 11 -10 13 0 7 20 -11 44 -64 31 -68 -6 -2 2 -9 17 -16 25
-11 27 -10 12 1 -24 19 -11 29 16 12 14 -9 26 -11 36 -5 9 6 20 5 28 -3 8 -6
26 -13 41 -14 14 -2 32 -4 39 -5 6 -1 12 -6 12 -12 0 -6 5 -4 10 4 9 13 11 13
21 0 9 -12 10 -11 5 5 l-6 20 16 -20 c13 -15 15 -16 11 -3 -3 9 1 22 9 29 12
10 13 9 8 -5 -5 -13 -2 -15 12 -9 16 6 17 4 7 -8 -11 -13 -8 -15 18 -11 27 4
28 5 12 19 -16 13 -16 13 5 3 15 -7 21 -17 18 -26 -11 -29 12 -4 29 32 12 26
65 246 65 271 0 4 -199 1 -225 -3z m-345 -118 c0 -11 -19 -15 -25 -6 -3 5 1
10 9 10 9 0 16 -2 16 -4z m10 -42 c0 -8 -4 -12 -10 -9 -5 3 -10 10 -10 16 0 5
5 9 10 9 6 0 10 -7 10 -16z m30 6 c-10 -6 -11 -10 -2 -10 6 0 12 -5 12 -11 0
-8 -5 -8 -15 1 -16 13 -11 30 8 30 7 0 6 -4 -3 -10z m34 -36 c3 -8 2 -12 -4
-9 -6 3 -10 10 -10 16 0 14 7 11 14 -7z m73 -11 c-4 -3 3 -18 15 -32 13 -14
15 -19 6 -12 -10 7 -18 10 -18 5 0 -5 -5 -1 -11 9 -10 16 -5 37 8 37 4 0 3 -3
0 -7z m129 -62 c2 -8 1 -8 -3 0 -4 8 -7 8 -13 -1 -5 -9 -9 -8 -13 3 -4 10 0
14 11 13 9 -2 17 -8 18 -15z m74 -1 c-6 -11 -13 -20 -16 -20 -2 0 0 9 6 20 6
11 13 20 16 20 2 0 0 -9 -6 -20z"/>
<path d="M5927 2491 c-24 -89 -49 -222 -43 -229 3 -3 6 4 6 15 0 12 7 24 16
27 9 4 13 2 8 -5 -5 -8 5 -10 29 -7 20 2 38 0 40 -6 4 -13 130 18 227 55 83
31 148 78 136 97 -4 7 -12 10 -17 7 -5 -4 -9 -2 -9 3 0 26 -207 88 -316 94
l-62 4 -15 -55z"/>
<path d="M4735 2490 c-3 -5 -1 -10 4 -10 6 0 11 5 11 10 0 6 -2 10 -4 10 -3 0
-8 -4 -11 -10z"/>
<path d="M4809 2461 c4 -19 6 -21 9 -8 2 9 8 15 13 12 5 -4 9 -2 9 3 0 5 -8
12 -18 14 -16 4 -18 1 -13 -21z"/>
<path d="M4596 2462 c-3 -5 1 -9 9 -9 8 0 12 4 9 9 -3 4 -7 8 -9 8 -2 0 -6 -4
-9 -8z"/>
<path d="M4090 2456 c0 -2 9 -6 20 -9 11 -3 18 -1 14 4 -5 9 -34 13 -34 5z"/>
<path d="M4900 2451 c0 -5 5 -13 10 -16 6 -3 10 -2 10 4 0 5 -4 13 -10 16 -5
3 -10 2 -10 -4z"/>
<path d="M4970 2429 c0 -5 5 -7 10 -4 6 3 10 8 10 11 0 2 -4 4 -10 4 -5 0 -10
-5 -10 -11z"/>
<path d="M7288 7895 c-48 -32 -65 -82 -44 -124 22 -42 63 -71 102 -71 67 0
126 86 103 148 -28 74 -93 93 -161 47z m62 -29 c0 -25 -27 -43 -43 -27 -12 12
9 51 28 51 9 0 15 -10 15 -24z"/>
<path d="M4958 7474 c-21 -12 -20 -13 25 -14 36 0 46 3 41 13 -6 9 -5 9 8 0 8
-7 18 -10 21 -6 4 3 7 2 7 -4 0 -13 80 -7 94 7 13 13 26 13 26 -1 0 -5 -4 -7
-10 -4 -5 3 -10 1 -10 -4 0 -6 11 -11 25 -11 19 0 25 5 25 20 0 20 -5 21 -114
19 -71 -2 -123 -7 -138 -15z"/>
<path d="M4676 7471 c-7 -10 60 -8 71 2 3 4 -10 7 -30 7 -20 0 -38 -4 -41 -9z"/>
<path d="M5640 7466 c0 -2 7 -6 15 -10 8 -3 15 -1 15 4 0 6 -7 10 -15 10 -8 0
-15 -2 -15 -4z"/>
<path d="M5695 7460 c-3 -5 -1 -10 4 -10 6 0 11 5 11 10 0 6 -2 10 -4 10 -3 0
-8 -4 -11 -10z"/>
<path d="M5563 7443 c9 -2 23 -2 30 0 6 3 -1 5 -18 5 -16 0 -22 -2 -12 -5z"/>
<path d="M3598 7233 c7 -3 16 -2 19 1 4 3 -2 6 -13 5 -11 0 -14 -3 -6 -6z"/>
<path d="M3548 7223 c6 -2 18 -2 25 0 6 3 1 5 -13 5 -14 0 -19 -2 -12 -5z"/>
<path d="M3470 7210 c-20 -6 -21 -8 -5 -8 11 0 31 4 45 8 20 6 21 8 5 8 -11 0
-31 -4 -45 -8z"/>
<path d="M3548 7153 c7 -3 16 -2 19 1 4 3 -2 6 -13 5 -11 0 -14 -3 -6 -6z"/>
<path d="M3488 7143 c6 -2 18 -2 25 0 6 3 1 5 -13 5 -14 0 -19 -2 -12 -5z"/>
<path d="M3405 7125 c-39 -14 -40 -14 -5 -8 41 7 82 22 60 22 -8 0 -33 -7 -55
-14z"/>
<path d="M7267 2446 c-8 -20 15 -37 33 -26 12 8 10 10 -7 10 -16 0 -21 4 -17
15 4 8 4 15 1 15 -3 0 -7 -6 -10 -14z"/>
<path d="M7335 2431 c-6 -11 13 -26 22 -17 4 3 1 6 -6 6 -7 0 -9 5 -6 10 3 6
4 10 1 10 -3 0 -7 -4 -11 -9z"/>
<path d="M7315 2401 c-3 -5 -1 -12 5 -16 5 -3 10 1 10 9 0 18 -6 21 -15 7z"/>
<path d="M7287 2385 c-4 -8 -3 -16 1 -19 4 -3 9 4 9 15 2 23 -3 25 -10 4z"/>
<path d="M7367 2389 c7 -7 15 -10 18 -7 3 3 -2 9 -12 12 -14 6 -15 5 -6 -5z"/>
<path d="M7340 2380 c0 -5 5 -10 11 -10 5 0 7 5 4 10 -3 6 -8 10 -11 10 -2 0
-4 -4 -4 -10z"/>
<path d="M7331 2321 c-6 -11 -7 -22 -2 -25 5 -3 11 4 14 16 8 30 1 35 -12 9z"/>
<path d="M7361 2298 c-10 -16 -10 -23 0 -32 9 -8 10 -8 5 2 -4 7 -2 20 5 28 6
8 10 16 8 19 -3 2 -11 -5 -18 -17z"/>
<path d="M7276 2274 c-3 -9 -13 -14 -21 -11 -9 4 -12 1 -8 -8 3 -8 9 -12 14
-9 5 3 9 1 9 -5 0 -5 -8 -12 -17 -15 -11 -3 -7 -4 7 -3 19 2 24 7 22 21 -3 18
-2 18 14 5 16 -13 16 -12 4 11 -17 33 -17 33 -24 14z"/>
<path d="M7200 2230 c-12 -7 -12 -10 3 -16 21 -8 29 -3 19 13 -5 8 -13 9 -22
3z"/>
<path d="M7330 2230 c-9 -6 -10 -10 -3 -10 6 0 15 5 18 10 8 12 4 12 -15 0z"/>
<path d="M7163 2213 c-7 -3 -13 -13 -13 -23 0 -9 -7 -23 -15 -30 -10 -8 -12
-18 -6 -29 5 -9 6 -22 4 -28 -9 -25 13 -12 31 17 9 17 21 28 25 26 4 -3 8 1 8
9 0 8 -6 16 -14 19 -7 3 -12 2 -12 -2 1 -4 1 -14 0 -22 -1 -13 -3 -13 -10 -1
-6 9 -6 22 0 34 8 14 13 16 25 6 11 -9 14 -8 14 4 0 17 -18 26 -37 20z m-3
-84 c0 -6 -4 -7 -10 -4 -5 3 -10 11 -10 16 0 6 5 7 10 4 6 -3 10 -11 10 -16z"/>
<path d="M7251 2196 c-25 -14 -39 -26 -32 -30 6 -4 11 -2 11 3 0 6 6 11 13 11
6 0 23 9 37 20 32 25 26 24 -29 -4z"/>
<path d="M7248 2153 c7 -3 16 -2 19 1 4 3 -2 6 -13 5 -11 0 -14 -3 -6 -6z"/>
<path d="M7226 2132 c-3 -4 4 -9 15 -9 23 -2 25 3 4 10 -8 4 -16 3 -19 -1z"/>
<path d="M7107 2100 c-3 -12 -14 -20 -26 -20 -12 0 -21 -4 -21 -10 0 -13 6
-13 30 0 22 12 46 50 32 50 -6 0 -12 -9 -15 -20z"/>
<path d="M7122 2059 c-14 -22 -7 -25 14 -5 8 8 11 17 6 20 -4 2 -13 -4 -20
-15z"/>
<path d="M7166 2063 c-6 -14 -5 -15 5 -6 7 7 10 15 7 18 -3 3 -9 -2 -12 -12z"/>
<path d="M7060 2030 c-9 -6 -10 -10 -3 -10 6 0 15 5 18 10 8 12 4 12 -15 0z"/>
<path d="M6777 1999 c-15 -15 -24 -30 -19 -33 4 -2 19 9 34 25 35 37 21 45
-15 8z"/>
<path d="M6660 1991 c0 -6 5 -13 10 -16 6 -3 10 1 10 9 0 9 -4 16 -10 16 -5 0
-10 -4 -10 -9z"/>
<path d="M6700 2000 c-9 -28 -5 -35 16 -35 13 0 24 3 24 8 0 4 -6 7 -14 7 -8
0 -17 6 -19 13 -3 6 -6 10 -7 7z"/>
<path d="M6917 1993 c-4 -3 -7 -11 -7 -17 0 -6 5 -5 12 2 6 6 9 14 7 17 -3 3
-9 2 -12 -2z"/>
<path d="M6520 1979 c0 -6 -8 -9 -20 -6 -25 6 -34 -8 -20 -30 9 -15 10 -14 5
7 -6 24 -5 24 9 6 9 -11 16 -14 16 -7 0 7 4 10 9 7 5 -3 11 1 15 9 3 8 1 17
-4 20 -6 4 -10 1 -10 -6z"/>
<path d="M6560 1980 c10 -6 11 -10 3 -10 -7 0 -13 -4 -13 -8 0 -4 9 -8 20 -8
11 0 20 3 20 6 0 10 -23 30 -34 30 -6 0 -4 -5 4 -10z"/>
<path d="M6400 1940 c0 -5 5 -10 11 -10 5 0 7 5 4 10 -3 6 -8 10 -11 10 -2 0
-4 -4 -4 -10z"/>
<path d="M6525 1930 c-3 -6 1 -7 9 -4 18 7 21 14 7 14 -6 0 -13 -4 -16 -10z"/>
<path d="M5093 1373 c-7 -2 -13 -11 -13 -19 0 -9 -4 -12 -10 -9 -12 8 -13 -27
-1 -40 4 -6 14 -39 21 -75 7 -36 19 -87 26 -114 8 -27 14 -63 13 -80 0 -46
-70 177 -76 247 -3 31 -10 57 -16 57 -20 0 -76 -72 -83 -106 -17 -94 20 -192
89 -234 34 -22 96 -20 147 4 60 27 95 156 66 243 -27 81 -112 147 -163 126z"/>
</g>
</svg>
